<svg version="1.2" xmlns="http://www.w3.org/2000/svg" viewBox="0 0 1546 1507" width="1546" height="1507">
	<title>gitcat-svg</title>
	<style>
		.s0 { fill: #ffffff } 
	</style>
	<path id="Layer" class="s0" d="m773.5 0c426.8 0 772.5 345.7 772.5 772.5 0 80.4-12.6 160.4-37.2 236.9-24.7 76.6-61.1 148.9-108 214.2-47 65.3-103.8 123-168.4 170.8-64.7 47.8-136.5 85.3-212.7 111-38.6 7.7-53.1-16.4-53.1-36.7 0-26.1 1-109.1 1-212.4 0-72.4-24.2-118.8-52.2-142.9 171.9-19.3 352.5-85 352.5-381.5 0-84.9-29.9-153.5-79.2-207.6 7.7-19.3 34.8-98.5-7.7-204.7 0 0-64.7-21.2-212.4 79.2-61.8-17.4-127.5-26.1-193.2-26.1-65.6 0-131.3 8.7-193.1 26.1-147.7-99.5-212.4-79.2-212.4-79.2-42.5 106.2-15.5 185.4-7.8 204.7-49.2 54.1-79.1 123.6-79.1 207.6 0 295.5 179.6 362.2 351.4 381.5-22.2 19.3-42.4 53.1-49.2 103.3-44.4 20.3-155.5 53.1-225-63.7-14.5-23.2-57.9-80.2-118.8-79.2-64.7 0.9-26 36.7 1 51.2 32.8 18.3 70.5 86.9 79.2 109.1 15.4 43.4 65.6 126.5 259.7 90.7 0 64.7 1 125.6 1 143.9 0 20.3-14.5 43.5-53.1 36.7-76.5-25.4-148.5-62.7-213.4-110.4-64.9-47.8-122-105.3-169.1-170.7-47.1-65.4-83.7-137.7-108.4-214.4-24.8-76.7-37.3-156.8-37.3-237.4 0-426.8 345.7-772.5 772.5-772.5z"/>
</svg>