<svg version="1.2" xmlns="http://www.w3.org/2000/svg" viewBox="0 0 1536 1536" width="1536" height="1536">
	<title>Telegram_2019_Logo-svg</title>
	<defs>
		<linearGradient id="g1" x2="1" gradientUnits="userSpaceOnUse" gradientTransform="matrix(0,1523.736,-1523.736,0,767.303,0)">
			<stop offset="0" stop-color="#2aabee"/>
			<stop offset="1" stop-color="#229ed9"/>
		</linearGradient>
	</defs>
	<style>
		.s0 { fill: url(#g1) } 
		.s1 { fill: #ffffff } 
	</style>
	<path id="Layer" class="s0" d="m767.9 1535.9c-424.6 0-767.9-343.3-767.9-768 0-424.6 343.3-767.9 767.9-767.9 424.7 0 768 343.3 768 767.9 0 424.7-343.3 768-768 768z"/>
	<path id="Layer" fill-rule="evenodd" class="s1" d="m347.2 759.6c223.8-97.2 372.8-161.7 447.6-193.1 212.9-88.9 257.7-104.2 286.5-104.8 6.4 0 20.4 1.2 30 8.9 7.7 6.4 9.6 14.7 10.9 21.1 1.3 6.4 2.5 19.8 1.3 30.1-11.6 121.5-61.4 416.2-87 551.8-10.9 57.5-32 76.7-52.4 78.6-44.8 3.9-78.7-29.4-121.5-57.5-67.8-44.1-105.5-71.6-171.4-115.1-76.1-49.9-26.8-77.4 16.6-122.1 11.5-11.5 207.8-190.6 211.7-206.6 0.6-1.9 0.6-9.6-3.9-13.4-4.4-3.8-10.8-2.6-15.9-1.3-7.1 1.3-114.5 72.9-323.6 214.2-30.7 21.1-58.2 31.4-83.1 30.7-27.5-0.6-79.9-15.3-119.6-28.1-47.9-15.4-86.3-23.7-83.1-50.5 1.9-14.1 21.1-28.2 56.9-42.9z"/>
</svg>